
<svg xmlns="http://www.w3.org/2000/svg" version="1.1" xmlns:xlink="http://www.w3.org/1999/xlink" preserveAspectRatio="none" x="0px" y="0px" width="960px" height="640px" viewBox="0 0 960 640">
<defs>
<g id="Layer7_0_FILL">
<path fill="#CC99FF" stroke="none" d="
M 992.25 660.2
L 992.25 -3.95 -4 -3.95 -4 660.2 992.25 660.2 Z"/>
</g>

<g id="circle_button_0_Layer0_0_FILL">
<path fill="#000000" stroke="none" d="
M 47.35 -47.4
Q 27.75 -67 0 -67 -27.75 -67 -47.4 -47.4 -67 -27.75 -67 0 -67 27.75 -47.4 47.35 -27.75 67 0 67 27.75 67 47.35 47.35 67 27.75 67 0 67 -27.75 47.35 -47.4 Z"/>
</g>

<path id="Layer7_0_1_STROKES" stroke="#000000" stroke-width="1" stroke-linejoin="round" stroke-linecap="round" fill="none" d="
M -4 -3.95
L 992.25 -3.95 992.25 660.2 -4 660.2 -4 -3.95 Z"/>

<path id="circle_button_0_Layer0_0_1_STROKES" stroke="#000000" stroke-width="1" stroke-linejoin="round" stroke-linecap="round" fill="none" d="
M 67 0
Q 67 27.75 47.35 47.35 27.75 67 0 67 -27.75 67 -47.4 47.35 -67 27.75 -67 0 -67 -27.75 -47.4 -47.4 -27.75 -67 0 -67 27.75 -67 47.35 -47.4 67 -27.75 67 0 Z"/>
</defs>

<g transform="matrix( 1, 0, 0, 1, 0,0) ">
<use xlink:href="#Layer7_0_FILL"/>

<use xlink:href="#Layer7_0_1_STROKES"/>
</g>

<g transform="matrix( 1, 0, 0, 1, 168.05,35.05) ">
<clipPath id="Mask_Mask_1">
<rect x="-2" y="-2" width="664.15" height="48.7" fill="#FFFFFF" stroke="none"/>
</clipPath>

<text clip-path="url(#Mask_Mask_1)" writing-mode="lr"><tspan x="179.85" y="36.2" baseline-shift="0%" font-family="Arial Bold" font-weight="bold" font-size="40" fill="#000000" xml:space="preserve">A random haiku</tspan></text>
</g>

<g id="line01_txt" transform="matrix( 1, 0, 0, 1, 306.1,99.85) ">
<clipPath id="Mask_Mask_2">
<rect x="-2" y="-2" width="374.05" height="48.7" fill="#FFFFFF" stroke="none"/>
</clipPath>

<text clip-path="url(#Mask_Mask_2)" writing-mode="lr"><tspan x="99.55" y="36.2" baseline-shift="0%" font-family="Arial Bold" font-weight="bold" font-size="40" fill="#000000" xml:space="preserve">Line One </tspan></text>
</g>

<g id="line02_txt" transform="matrix( 1, 0, 0, 1, 306.1,159.9) ">
<clipPath id="Mask_Mask_3">
<rect x="-2" y="-2" width="364.1" height="50.2" fill="#FFFFFF" stroke="none"/>
</clipPath>

<text clip-path="url(#Mask_Mask_3)" writing-mode="lr"><tspan x="99.05" y="36.2" baseline-shift="0%" font-family="Arial Bold" font-weight="bold" font-size="40" fill="#000000" xml:space="preserve">Line two</tspan></text>
</g>

<g id="line03_txt" transform="matrix( 1, 0, 0, 1, 306.1,219.9) ">
<clipPath id="Mask_Mask_4">
<rect x="-2" y="-2" width="366.1" height="54.2" fill="#FFFFFF" stroke="none"/>
</clipPath>

<text clip-path="url(#Mask_Mask_4)" writing-mode="lr"><tspan x="85.6" y="36.2" baseline-shift="0%" font-family="Arial Bold" font-weight="bold" font-size="40" fill="#000000" xml:space="preserve">Line three</tspan></text>
</g>

<g id="toFrame02_btn" transform="matrix( 1, 0, 0, 1, 484.1,510.15) ">
<g transform="matrix( 1, 0, 0, 1, 0,0) ">
<use xlink:href="#circle_button_0_Layer0_0_FILL"/>

<use xlink:href="#circle_button_0_Layer0_0_1_STROKES"/>
</g>
</g>
</svg>
